<?xml version="1.0" encoding="utf-8"?>
<!-- Generator: Adobe Illustrator 16.0.3, SVG Export Plug-In . SVG Version: 6.00 Build 0)  -->
<!DOCTYPE svg PUBLIC "-//W3C//DTD SVG 1.1//EN" "http://www.w3.org/Graphics/SVG/1.1/DTD/svg11.dtd">
<svg version="1.1" id="Layer_1" xmlns="http://www.w3.org/2000/svg" xmlns:xlink="http://www.w3.org/1999/xlink" x="0px" y="0px"
	 width="48px" height="83px" viewBox="0 0 48 83" enable-background="new 0 0 48 83" xml:space="preserve">
<g id="XMLID_81_">
	<linearGradient id="XMLID_35_" gradientUnits="userSpaceOnUse" x1="-9.6528" y1="22.5137" x2="58.0815" y2="61.6201">
		<stop  offset="0" style="stop-color:#CCCCCC"/>
		<stop  offset="0.5566" style="stop-color:#CECECE"/>
		<stop  offset="1" style="stop-color:#666666"/>
	</linearGradient>
	<path id="XMLID_161_" fill-rule="evenodd" clip-rule="evenodd" fill="url(#XMLID_35_)" d="M45.103,80.163
		c-0.63,0.627-1.437,0.977-2.327,0.977H5.694c-0.889,0-1.732-0.35-2.362-0.979c-0.628-0.631-0.979-1.473-0.979-2.363V6.333
		c0-1.842,1.499-3.341,3.341-3.341l37.047,0c1.847,0,3.306,1.502,3.306,3.34v71.466C46.047,78.687,45.737,79.527,45.103,80.163
		L45.103,80.163z M46.417,81.48C45.438,82.455,44.16,83,42.775,83H5.694c-1.383,0-2.7-0.546-3.68-1.524
		c-0.976-0.979-1.521-2.295-1.521-3.678V6.333c0-2.87,2.332-5.203,5.201-5.203l37.047,0.001c2.874,0,5.166,2.336,5.166,5.201v71.466
		C47.907,79.184,47.4,80.494,46.417,81.48L46.417,81.48z"/>
	<g id="XMLID_154_">
		<defs>
			<path id="XMLID_155_" d="M43.787,78.847c0.282-0.282,0.398-0.655,0.398-1.049V6.332c0-0.81-0.625-1.479-1.444-1.479l-37.047,0
				c-0.814,0-1.479,0.666-1.479,1.48v71.465c0,0.397,0.153,0.767,0.434,1.048c0.28,0.28,0.65,0.433,1.046,0.433h37.081
				C43.174,79.278,43.508,79.125,43.787,78.847L43.787,78.847z"/>
		</defs>
		<clipPath id="XMLID_40_">
			<use xlink:href="#XMLID_155_"  overflow="visible"/>
		</clipPath>
		<g id="XMLID_156_" clip-path="url(#XMLID_40_)">
			<defs>
				<rect id="XMLID_157_" x="4.215" y="4.853" width="39.971" height="74.426"/>
			</defs>
			<clipPath id="XMLID_41_">
				<use xlink:href="#XMLID_157_"  overflow="visible"/>
			</clipPath>
			<linearGradient id="XMLID_42_" gradientUnits="userSpaceOnUse" x1="46.9863" y1="82.335" x2="1.9824" y2="4.3859">
				<stop  offset="0" style="stop-color:#FFFFFF"/>
				<stop  offset="0.0882" style="stop-color:#D6D6D6"/>
				<stop  offset="0.1084" style="stop-color:#CCCCCC"/>
				<stop  offset="0.1527" style="stop-color:#CECECE"/>
				<stop  offset="0.3399" style="stop-color:#D9D9D9"/>
				<stop  offset="0.4532" style="stop-color:#FFFFFF"/>
			</linearGradient>
			<rect id="XMLID_1_" x="2.079" y="4.33" clip-path="url(#XMLID_41_)" fill="url(#XMLID_42_)" width="44.811" height="78.061"/>
		</g>
	</g>
	<g id="XMLID_80_">
		<path id="XMLID_2_" fill-rule="evenodd" clip-rule="evenodd" fill="#201600" d="M44.219,79.276
			c0.396-0.396,0.576-0.919,0.576-1.479V6.332c0-1.151-0.901-2.089-2.054-2.089v0H5.694c-1.152,0-2.089,0.939-2.089,2.09v71.465
			c0,0.56,0.217,1.083,0.612,1.479c0.395,0.395,0.919,0.611,1.477,0.611h37.081C43.335,79.888,43.823,79.671,44.219,79.276
			L44.219,79.276L44.219,79.276z M4.928,17.167V6.179c0-0.205,0.08-0.398,0.225-0.542c0.146-0.145,0.337-0.226,0.542-0.226l37.081,0
			c0.206,0,0.398,0.082,0.543,0.226c0.146,0.144,0.226,0.337,0.226,0.542v10.987H4.928L4.928,17.167z M4.928,64.793V18.678
			l38.616-0.036v46.15H4.928L4.928,64.793z M43.544,66.271v11.68c0,0.423-0.345,0.769-0.769,0.769H5.694
			c-0.204,0-0.396-0.081-0.542-0.225c-0.145-0.146-0.225-0.338-0.225-0.543V66.271H43.544L43.544,66.271z M18.288,16.045
			c2.531,0,4.582-2.051,4.582-4.582c0-2.531-2.051-4.582-4.582-4.582c-2.53,0-4.582,2.051-4.582,4.582
			C13.706,13.994,15.758,16.045,18.288,16.045L18.288,16.045z M17.69,77.184c2.53,0,4.582-2.05,4.582-4.582
			c0-2.53-2.052-4.581-4.582-4.581c-2.531,0-4.582,2.051-4.582,4.581C13.108,75.133,15.159,77.184,17.69,77.184L17.69,77.184z
			 M24.778,16.059c0.065-0.182,0.114-0.347,0.132-0.677l0.001-7.837c-0.019-0.331-0.067-0.494-0.133-0.676l1.19,0
			c-0.067,0.181-0.117,0.346-0.133,0.676v7.093c0,0.265,0.28,0.578,0.892,0.578c0.612,0,1.587,0,2.05-0.248L28.1,16.059H24.778
			L24.778,16.059z M31.091,16.059c0.065-0.182,0.115-0.347,0.132-0.677l0.001-7.837c-0.017-0.331-0.067-0.494-0.133-0.676l1.189,0
			c-0.064,0.181-0.116,0.346-0.132,0.676v7.093c0,0.265,0.281,0.578,0.893,0.578c0.611,0,1.587,0,2.05-0.248l-0.677,1.091H31.091
			L31.091,16.059z M8.696,16.059c-0.066-0.182-0.116-0.347-0.134-0.677l0.001-3.869c0-0.297,0.182-0.282,0.314-0.115l3.951,4.662
			h1.205l-4.099-4.828c-0.1-0.116-0.082-0.297,0.066-0.297l0.43,0.002c1.123,0,2.034-0.912,2.034-2.035
			c0-1.123-0.911-2.035-2.035-2.035L7.507,6.868c0.065,0.181,0.115,0.346,0.131,0.676v7.836c-0.016,0.331-0.066,0.496-0.131,0.678
			H8.696L8.696,16.059z M8.098,77.064c-0.066-0.182-0.115-0.347-0.132-0.678v-3.869c0-0.296,0.181-0.278,0.313-0.115l3.95,4.662
			h1.207l-4.099-4.826c-0.099-0.116-0.084-0.298,0.064-0.298h0.432c1.122,0,2.033-0.91,2.033-2.034
			c0.001-1.122-0.911-2.032-2.033-2.032l-2.926-0.001c0.065,0.182,0.114,0.348,0.132,0.679v7.835
			c-0.018,0.329-0.066,0.497-0.133,0.679L8.098,77.064L8.098,77.064z M40.644,8.704l0.413-1.041
			c-0.182-0.033-0.414-0.101-0.728-0.232c-0.292-0.124-0.826-0.348-1.339-0.348c-0.512,0-1.921,0.3-2.001,1.818
			c-0.065,1.258,0.776,1.868,1.092,2.118c0.446,0.331,1.587,1.206,2.1,1.917c0.512,0.711,0.776,2.199-1.059,2.414
			c-0.628-0.001-1.321-0.313-1.702-0.562l0.148,1.29c0.381-0.067,0.597,0.014,0.761,0.034c0.281,0.032,0.661,0.116,1.024,0.099
			c0.364-0.017,2.232-0.331,2.232-2.133c0-1.586-1.107-2.363-1.554-2.726c-0.314-0.232-1.348-1.136-1.737-1.439
			c-0.297-0.231-0.776-1.867,0.695-1.901C39.734,7.992,40.396,8.555,40.644,8.704L40.644,8.704z M25.895,76.52
			c0.017,0.331,0.066,0.496,0.133,0.679l-1.189-0.001c0.065-0.182,0.115-0.347,0.131-0.677l0.001-4.166l-2.446-4.348h1.074
			l1.868,3.289l1.867-3.289h1.074l-2.513,4.348V76.52L25.895,76.52z M40.794,71.361h-1.62c-0.281,0-0.513-0.114-0.513-0.479v-1.455
			c0-0.264,0.281-0.577,0.892-0.577c0.613,0,1.158,0,1.621,0.247l-0.248-1.09h-3.322c0.066,0.182,0.115,0.346,0.131,0.677
			l0.001,7.836c-0.017,0.331-0.066,0.496-0.132,0.679l3.322-0.001l0.678-1.091c-0.463,0.247-1.438,0.247-2.051,0.247
			c-0.609,0-0.892-0.313-0.892-0.578v-3.008c0-0.365,0.231-0.479,0.513-0.479l1.62-0.001V71.361L40.794,71.361z M35.559,69.582
			c-0.703-0.551-1.563-0.807-2.489-0.807c-2.04,0-3.693,1.787-3.693,3.826c0,2.041,1.653,3.892,3.693,3.892
			c1.021,0,1.944-0.115,2.611-0.782l0.038,1.126c-0.749,0.531-1.664,0.545-2.649,0.545c-2.53,0-4.582-2.248-4.582-4.78
			c0-2.529,2.052-4.715,4.582-4.715c0.907,0,1.653,0.133,2.365,0.587L35.559,69.582L35.559,69.582z M18.288,15.156
			c2.04,0,3.693-1.651,3.693-3.692c0-2.04-1.653-3.693-3.693-3.693c-2.039-0.001-3.693,1.654-3.693,3.693
			C14.595,13.504,16.249,15.156,18.288,15.156L18.288,15.156z M17.69,76.295c2.039,0,3.693-1.653,3.693-3.693
			c0-2.039-1.655-3.693-3.693-3.693c-2.04,0-3.694,1.654-3.694,3.693C13.997,74.642,15.65,76.295,17.69,76.295L17.69,76.295z
			 M10.429,9.999c0.613,0,1.109-0.499,1.109-1.111c0.001-0.614-0.496-1.111-1.109-1.111l-1.868,0v2.218L10.429,9.999L10.429,9.999z
			 M9.83,71.004c0.613,0,1.11-0.496,1.11-1.111c0-0.612-0.497-1.108-1.111-1.108H7.962v2.218L9.83,71.004L9.83,71.004z
			 M25.409,58.122h7.34c-1.124-0.595-1.521-2.183-1.588-3.703c-0.728-6.877-4.562-12.231-5.488-13.622
			c4.356-2.612,6.282-6.617,6.282-10.313c0-6.15-5.422-9.06-10.117-9.06H9.475c0.462,0.66,0.792,0.925,0.792,2.446v31.341
			c0,1.521-0.66,2.249-1.123,2.91h5.62c-0.462-0.662-1.124-1.389-1.124-2.91l0.001-11.505c3.788-0.062,6.953-0.688,9.49-1.695
			c3.866,4.142,4.328,10.16,4.395,11.812C27.592,55.478,26.732,56.933,25.409,58.122L25.409,58.122z M13.641,40.865L13.641,40.865
			v-17.26h7.272c5.025,0,6.678,3.175,6.612,6.546C27.195,39.476,17.938,40.865,13.641,40.865L13.641,40.865z M20.25,47.344
			c1.742-0.027,3.416-0.174,4.895-0.42c-0.2-0.673-0.928-2.127-1.292-2.727c-1.351,0.228-2.609,0.302-3.603,0.302v-0.727
			c-0.462,0.164-2.514,0.462-3.372,0.563v14.514c0,1.521-0.662,2.247-1.125,2.909h5.621c-0.463-0.662-1.124-1.388-1.124-2.908
			V47.344L20.25,47.344z M26.204,27.14H20.25v11.835c-0.759,0.265-2.278,0.761-3.369,0.859V27.403c0-1.521-0.33-1.785-0.794-2.446
			l8.233,0C24.98,25.354,25.872,26.314,26.204,27.14L26.204,27.14z M32.053,61.669h7.235c0,0-0.935-0.606-1.308-2.286
			c-0.372-1.681-0.279-4.62-1.866-8.17c-1.278-2.854-3.039-5.802-3.677-6.841c1.929-1.181,4.297-3.257,5.591-6.741
			c2.426-6.533-2.241-11.388-6.629-12.228c0,0,1.214,2.195,1.401,3.781c0-0.001,2.764,3.045,0.652,8.354
			c-1.633,4.106-5.413,5.413-5.413,5.413l1.353,2.8c0,0,0.191-0.048,0.52-0.163c0.834,0.945,4.126,5.076,4.289,11.554
			C34.201,57.143,34.434,59.803,32.053,61.669L32.053,61.669z"/>
		<path id="XMLID_28_" fill="#201600" d="M42.775,79.965H5.694c-0.578,0-1.122-0.225-1.53-0.634
			c-0.41-0.411-0.636-0.955-0.636-1.534V6.333c0-1.195,0.972-2.167,2.166-2.167l37.124,0.002c1.14,0.041,2.054,0.996,2.054,2.164
			v71.466c0,0.61-0.207,1.141-0.6,1.533l0,0C43.857,79.745,43.341,79.965,42.775,79.965z M5.694,4.319
			c-1.109,0-2.013,0.903-2.013,2.014v71.464c0,0.538,0.21,1.044,0.591,1.426c0.379,0.38,0.885,0.588,1.422,0.588h37.081
			c0.53,0,0.998-0.197,1.389-0.588l0,0c0.362-0.363,0.555-0.855,0.555-1.425V6.332c0-1.109-0.888-2.012-1.978-2.012L5.694,4.319z
			 M42.775,78.796H5.694c-0.225,0-0.437-0.088-0.596-0.249c-0.16-0.158-0.248-0.37-0.248-0.596l0.001-11.759h38.77V77.95
			C43.621,78.417,43.241,78.796,42.775,78.796z M5.005,66.347L5.004,77.951c0,0.185,0.072,0.357,0.203,0.487
			c0.131,0.132,0.304,0.203,0.487,0.203h37.081c0.382,0,0.691-0.31,0.691-0.691V66.347H5.005z M33.069,77.459
			c-2.525,0-4.659-2.225-4.659-4.856c0-2.598,2.134-4.793,4.659-4.793c1.029,0,1.748,0.18,2.406,0.6l0.031,0.019l0.148,1.328
			l-0.144-0.113c-0.67-0.524-1.491-0.79-2.442-0.79c-1.961,0-3.616,1.717-3.616,3.75c0,2.067,1.655,3.813,3.616,3.813
			c0.934,0,1.89-0.092,2.557-0.76l0.125-0.126l0.046,1.346l-0.034,0.023C34.975,77.459,34.007,77.459,33.069,77.459z M33.069,67.964
			c-2.442,0-4.505,2.124-4.505,4.639c0,2.549,2.063,4.701,4.505,4.701c0.899,0,1.829,0,2.57-0.506l-0.03-0.916
			c-0.696,0.602-1.63,0.688-2.54,0.688c-2.044,0-3.771-1.817-3.771-3.968c0-2.116,1.727-3.904,3.771-3.904
			c0.92,0,1.725,0.241,2.394,0.717l-0.101-0.896C34.738,68.13,34.051,67.964,33.069,67.964z M26.136,77.275l-1.408-0.001
			l0.037-0.104c0.063-0.17,0.112-0.327,0.128-0.654v-4.143l-2.5-4.444h1.25l0.021,0.039l1.802,3.171l1.822-3.21h1.252l-2.568,4.445
			v4.143c0.017,0.324,0.065,0.482,0.128,0.654L26.136,77.275z M24.946,77.12l0.973,0.001c-0.048-0.148-0.086-0.317-0.101-0.598
			l-0.001-0.004v-4.187l0.011-0.018l2.445-4.232h-0.896l-1.911,3.368l-1.913-3.368h-0.897l2.392,4.251l-0.001,4.187
			C25.032,76.806,24.993,76.973,24.946,77.12z M37.495,77.275l0.037-0.104c0.062-0.172,0.109-0.33,0.127-0.656l-0.002-7.832
			c-0.016-0.324-0.063-0.48-0.125-0.65l-0.038-0.104h3.493l0.299,1.314l-0.148-0.079c-0.446-0.238-0.974-0.238-1.585-0.238
			c-0.529,0-0.815,0.258-0.815,0.5v1.455c0,0.274,0.139,0.401,0.437,0.401h1.697v1.082l-1.697,0.001
			c-0.298,0-0.437,0.128-0.437,0.402v3.007c0,0.243,0.286,0.501,0.815,0.501c0.587,0,1.569,0,2.015-0.238l0.253-0.135l-0.852,1.371
			L37.495,77.275z M37.712,68.083c0.048,0.147,0.086,0.315,0.1,0.598l0.001,7.839c-0.015,0.283-0.053,0.453-0.101,0.602l3.172-0.001
			l0.53-0.854c-0.517,0.164-1.311,0.164-1.861,0.164c-0.637,0-0.97-0.33-0.97-0.655v-3.007c0-0.359,0.21-0.557,0.591-0.557
			l1.543-0.001v-0.773h-1.543c-0.381,0-0.591-0.197-0.591-0.556v-1.455c0-0.325,0.333-0.654,0.97-0.654c0.567,0,1.066,0,1.512,0.187
			l-0.199-0.876H37.712z M17.69,77.261c-2.569,0-4.659-2.091-4.659-4.658c0-1.245,0.484-2.415,1.364-3.294
			c0.88-0.88,2.05-1.365,3.294-1.365c0.001,0,0.001,0,0.001,0c2.569,0,4.658,2.091,4.658,4.659
			C22.349,75.17,20.26,77.261,17.69,77.261z M17.689,68.098c-1.203,0-2.334,0.469-3.185,1.318c-0.852,0.852-1.32,1.982-1.32,3.187
			c0,2.483,2.021,4.504,4.506,4.504s4.505-2.021,4.505-4.504C22.195,70.118,20.175,68.098,17.689,68.098L17.689,68.098z
			 M6.798,77.143l0.037-0.104c0.063-0.172,0.111-0.329,0.129-0.657v-7.829c-0.018-0.324-0.066-0.481-0.128-0.653l-0.037-0.103
			l3.035,0.001c0.563,0,1.093,0.219,1.492,0.617c0.398,0.398,0.618,0.928,0.617,1.491c0,1.164-0.945,2.111-2.109,2.111H9.402
			c-0.029,0-0.039,0.011-0.044,0.023c-0.015,0.032-0.005,0.097,0.038,0.147l4.207,4.953h-1.409l-0.023-0.028l-3.949-4.661
			c-0.061-0.074-0.114-0.101-0.137-0.088c-0.015,0.004-0.043,0.043-0.043,0.153v3.869c0.017,0.323,0.065,0.48,0.128,0.65
			l0.037,0.104L6.798,77.143z M7.016,67.951c0.048,0.146,0.087,0.315,0.102,0.597v7.839c-0.015,0.284-0.054,0.453-0.102,0.601h0.974
			c-0.048-0.147-0.087-0.315-0.101-0.597v-3.873c0-0.205,0.079-0.275,0.145-0.299c0.095-0.035,0.21,0.016,0.307,0.135l3.926,4.634
			h1.005l-3.991-4.699c-0.078-0.092-0.103-0.22-0.061-0.313c0.033-0.07,0.101-0.112,0.184-0.112h0.432
			c1.079,0,1.956-0.878,1.956-1.957c0.001-0.522-0.203-1.014-0.572-1.383c-0.37-0.369-0.861-0.572-1.384-0.572H7.016z M17.69,76.371
			c-2.079,0-3.771-1.69-3.771-3.769c0-2.08,1.692-3.771,3.771-3.771c1.007,0,1.953,0.393,2.665,1.104
			c0.713,0.713,1.105,1.66,1.104,2.667C21.46,74.681,19.77,76.371,17.69,76.371z M17.69,68.986c-1.995,0-3.618,1.621-3.618,3.616
			c0.001,1.993,1.624,3.615,3.618,3.615s3.616-1.622,3.616-3.615c0-0.966-0.376-1.875-1.06-2.558
			C19.564,69.361,18.656,68.986,17.69,68.986z M9.83,71.082l-1.945-0.004v-2.371h1.944c0.655,0,1.188,0.531,1.188,1.186
			C11.017,70.548,10.484,71.082,9.83,71.082z M8.039,70.925l1.791,0.002c0.569,0,1.033-0.464,1.033-1.034
			c0-0.569-0.464-1.032-1.034-1.032h-1.79V70.925z M43.621,64.87H4.852V18.602h0.076l38.693-0.036V64.87z M5.005,64.716h38.462
			V18.72L5.005,18.755V64.716z M21.521,61.835h-5.916l0.085-0.121c0.05-0.073,0.104-0.146,0.157-0.221
			c0.447-0.617,0.953-1.314,0.953-2.645V44.267l0.068-0.008c0.907-0.107,2.914-0.401,3.355-0.559l0.103-0.037l-0.001,0.759
			c0.826-0.003,2.083-0.06,3.514-0.301l0.051-0.009l0.027,0.045c0.373,0.614,1.099,2.071,1.3,2.744l0.024,0.083l-0.086,0.015
			c-1.465,0.245-3.133,0.391-4.829,0.421l-0.001,11.43c0,1.329,0.506,2.026,0.952,2.643c0.055,0.075,0.108,0.148,0.158,0.222
			L21.521,61.835z M15.902,61.681h5.323c-0.023-0.033-0.048-0.065-0.071-0.099c-0.438-0.604-0.981-1.354-0.981-2.732l0.001-11.582
			l0.076-0.001c1.68-0.025,3.336-0.166,4.794-0.404c-0.222-0.677-0.87-1.977-1.23-2.581c-1.464,0.243-2.744,0.295-3.563,0.295
			h-0.077l0.001-0.699c-0.615,0.172-2.451,0.434-3.219,0.526v14.445c0,1.38-0.545,2.131-0.982,2.734
			C15.948,61.616,15.925,61.648,15.902,61.681z M39.288,61.746h-7.457l0.175-0.138c2.129-1.669,2.14-3.965,2.122-4.39h-0.002
			l-0.003-0.075c-0.158-6.299-3.236-10.323-4.235-11.465c-0.296,0.103-0.469,0.146-0.477,0.148l-0.061,0.015l-0.028-0.056
			l-1.389-2.878l0.081-0.028c0.038-0.013,3.768-1.345,5.366-5.369c1.951-4.904-0.298-7.866-0.604-8.235l-0.042,0.016l-0.012-0.099
			c-0.183-1.553-1.379-3.731-1.392-3.753l-0.079-0.144l0.161,0.031c2.549,0.488,4.943,2.233,6.25,4.553
			c0.914,1.624,1.731,4.29,0.436,7.777c-1.311,3.53-3.731,5.608-5.558,6.739c0.711,1.161,2.4,4.01,3.642,6.784
			c1.152,2.574,1.426,4.853,1.626,6.516c0.077,0.647,0.145,1.206,0.246,1.669c0.361,1.625,1.266,2.232,1.274,2.237l0.217,0.142
			L39.288,61.746z M32.27,61.592h6.8c-0.296-0.267-0.883-0.93-1.163-2.192c-0.104-0.47-0.172-1.032-0.25-1.684
			c-0.199-1.653-0.471-3.918-1.612-6.471c-1.262-2.82-2.989-5.718-3.673-6.833l-0.04-0.065l0.065-0.041
			c1.813-1.107,4.248-3.17,5.559-6.701c1.275-3.432,0.473-6.054-0.425-7.648c-1.259-2.234-3.541-3.925-5.986-4.445
			c0.271,0.514,1.163,2.295,1.329,3.64c0.248,0.284,2.687,3.299,0.651,8.417c-1.495,3.759-4.819,5.206-5.379,5.427l1.288,2.666
			c0.08-0.022,0.237-0.069,0.451-0.145l0.049-0.018l0.035,0.039c0.97,1.097,4.146,5.177,4.309,11.602h-0.002
			C34.297,57.4,34.391,59.806,32.27,61.592z M8.996,58.2l0.085-0.121c0.05-0.072,0.103-0.146,0.157-0.22
			c0.445-0.617,0.952-1.315,0.952-2.646V23.871c0-1.327-0.251-1.672-0.63-2.193c-0.048-0.066-0.098-0.136-0.149-0.209l-0.085-0.121
			h12.512c2.517,0,5.019,0.816,6.867,2.24c1.517,1.169,3.328,3.315,3.328,6.897c0,4.102-2.336,7.96-6.251,10.337l0.126,0.188
			c1.147,1.699,4.639,6.872,5.33,13.402c0.059,1.322,0.373,3.023,1.547,3.644l0.274,0.146h-7.851l0.148-0.134
			c1.428-1.284,2.151-2.749,2.092-4.239c-0.09-2.216-0.692-7.786-4.339-11.725c-2.661,1.051-5.821,1.615-9.394,1.681l-0.001,11.431
			c0,1.329,0.506,2.027,0.952,2.643c0.055,0.076,0.107,0.149,0.159,0.223l0.084,0.121L8.996,58.2z M9.623,21.501
			c0.021,0.029,0.042,0.058,0.063,0.086c0.382,0.526,0.658,0.906,0.658,2.284v31.342c0,1.381-0.545,2.132-0.981,2.736
			c-0.023,0.032-0.047,0.064-0.069,0.097l5.322-0.001c-0.023-0.032-0.048-0.065-0.072-0.099c-0.437-0.604-0.98-1.354-0.98-2.733
			l0.001-11.581l0.075-0.002c3.607-0.059,6.791-0.627,9.463-1.69l0.05-0.019l0.035,0.039c3.714,3.978,4.325,9.62,4.416,11.861
			c0.06,1.484-0.63,2.942-1.996,4.225h6.872c-1.046-0.741-1.337-2.355-1.393-3.623c-0.688-6.488-4.163-11.637-5.306-13.328
			l-0.216-0.321l0.069-0.042c3.911-2.345,6.244-6.176,6.244-10.247c0-5.897-5.05-8.983-10.04-8.983H9.623z M13.64,40.941h-0.076
			V23.528h7.35c2.187,0,3.879,0.596,5.029,1.769c1.422,1.45,1.688,3.44,1.66,4.855C27.247,40.164,16.825,40.941,13.64,40.941z
			 M13.717,23.682v17.106c3.238-0.013,13.384-0.846,13.732-10.64c0.026-1.385-0.232-3.333-1.615-4.744
			c-1.122-1.143-2.777-1.723-4.921-1.723H13.717z M16.805,39.918V27.403c0-1.328-0.252-1.672-0.632-2.194
			c-0.048-0.066-0.098-0.134-0.149-0.208l-0.085-0.121l8.402-0.001l0.019,0.011c0.65,0.391,1.567,1.351,1.917,2.22l0.042,0.105
			h-5.991v11.813l-0.051,0.018c-0.986,0.344-2.374,0.772-3.389,0.864L16.805,39.918z M16.236,25.035
			c0.021,0.028,0.041,0.057,0.061,0.084c0.384,0.526,0.661,0.907,0.661,2.285V39.75c0.973-0.104,2.27-0.501,3.216-0.83V27.063h5.914
			c-0.354-0.78-1.187-1.658-1.789-2.029L16.236,25.035z M43.621,17.243H4.852V6.179c0-0.226,0.088-0.438,0.247-0.597
			c0.159-0.16,0.371-0.248,0.596-0.248l37.081-0.001c0.225,0,0.437,0.089,0.597,0.249c0.16,0.158,0.249,0.371,0.249,0.597V17.243z
			 M5.005,17.09h38.462V6.179c0-0.185-0.071-0.359-0.203-0.488c-0.131-0.131-0.305-0.204-0.488-0.204L5.694,5.488
			c-0.184,0-0.356,0.072-0.487,0.203C5.077,5.82,5.005,5.994,5.005,6.179V17.09z M39.254,16.288c-0.237,0-0.474-0.035-0.686-0.067
			c-0.089-0.013-0.172-0.026-0.248-0.034c-0.039-0.005-0.08-0.013-0.125-0.021c-0.149-0.028-0.334-0.063-0.613-0.013l-0.08,0.014
			l-0.177-1.534l0.137,0.089c0.417,0.273,1.093,0.549,1.661,0.55c0.654-0.077,1.082-0.326,1.265-0.739
			c0.222-0.503,0.016-1.158-0.269-1.553c-0.502-0.694-1.624-1.56-2.084-1.899l-0.041-0.032c-0.343-0.27-1.146-0.903-1.081-2.151
			c0.081-1.551,1.527-1.891,2.077-1.891c0.531,0,1.076,0.23,1.368,0.354c0.277,0.116,0.51,0.19,0.712,0.227l0.093,0.017
			l-0.481,1.213L40.604,8.77c-0.043-0.026-0.098-0.064-0.163-0.109c-0.293-0.202-0.835-0.576-1.417-0.576c-0.011,0-0.021,0-0.03,0
			c-0.475,0.011-0.773,0.192-0.889,0.541c-0.157,0.477,0.085,1.104,0.237,1.222c0.182,0.142,0.493,0.405,0.821,0.684
			c0.368,0.31,0.748,0.632,0.915,0.755l0.095,0.076c0.483,0.386,1.49,1.189,1.49,2.712c0,2.047-2.282,2.209-2.306,2.21
			C39.323,16.287,39.288,16.288,39.254,16.288z M37.855,15.974c0.153,0,0.271,0.022,0.368,0.041c0.042,0.008,0.079,0.015,0.114,0.02
			c0.077,0.009,0.163,0.021,0.254,0.035c0.234,0.036,0.502,0.075,0.759,0.063c0.021-0.001,2.158-0.152,2.158-2.057
			c0-1.449-0.933-2.192-1.432-2.592l-0.093-0.075c-0.169-0.124-0.551-0.447-0.92-0.759c-0.313-0.265-0.638-0.54-0.817-0.679
			c-0.203-0.158-0.466-0.855-0.288-1.391c0.095-0.287,0.351-0.631,1.029-0.646c0.012,0,0.023,0,0.035,0
			c0.63,0,1.197,0.391,1.505,0.603c0.028,0.02,0.054,0.038,0.078,0.054l0.345-0.869c-0.191-0.043-0.405-0.115-0.652-0.218
			c-0.282-0.12-0.809-0.342-1.309-0.342c-0.018,0-1.833,0.021-1.925,1.746c-0.06,1.169,0.7,1.767,1.023,2.023l0.04,0.031
			c0.463,0.342,1.601,1.22,2.115,1.932c0.319,0.444,0.531,1.143,0.284,1.704c-0.142,0.321-0.499,0.725-1.397,0.83
			c-0.581,0-1.202-0.248-1.616-0.49l0.121,1.053C37.716,15.978,37.789,15.974,37.855,15.974z M34.458,16.136h-3.477l0.037-0.103
			c0.063-0.174,0.111-0.333,0.128-0.656V7.544c-0.017-0.316-0.065-0.475-0.128-0.65l-0.037-0.103l1.409-0.001l-0.037,0.103
			c-0.063,0.173-0.112,0.332-0.13,0.654l0.002,7.089c0,0.201,0.217,0.501,0.815,0.501c0.596-0.001,1.571-0.002,2.014-0.239
			l0.252-0.135L34.458,16.136z M31.198,15.982h3.173l0.53-0.854c-0.513,0.163-1.301,0.164-1.847,0.164
			c-0.65,0-0.983-0.329-0.983-0.655L32.07,7.544c0.015-0.283,0.052-0.448,0.103-0.6l-0.975,0c0.05,0.153,0.088,0.317,0.102,0.595
			v7.841C31.285,15.665,31.247,15.83,31.198,15.982z M28.144,16.136h-3.476l0.038-0.103c0.062-0.17,0.11-0.327,0.128-0.656V7.544
			c-0.018-0.32-0.066-0.478-0.128-0.65l-0.037-0.103l1.409-0.001l-0.037,0.103c-0.063,0.172-0.112,0.329-0.129,0.654l0.001,7.089
			c0,0.201,0.217,0.501,0.814,0.501c0.596-0.001,1.571-0.002,2.014-0.239l0.252-0.135L28.144,16.136z M24.886,15.982h3.172
			l0.53-0.854c-0.514,0.163-1.301,0.164-1.847,0.164c-0.649,0-0.982-0.329-0.982-0.655V7.544c0.015-0.283,0.053-0.452,0.102-0.6
			l-0.975,0c0.048,0.148,0.086,0.316,0.102,0.595v7.842C24.972,15.667,24.934,15.835,24.886,15.982z M14.2,16.136h-1.406
			l-0.023-0.027l-3.951-4.662c-0.06-0.075-0.118-0.095-0.137-0.089c-0.015,0.005-0.043,0.044-0.043,0.155v3.869
			c0.017,0.322,0.066,0.479,0.129,0.651l0.037,0.103H7.397l0.037-0.103c0.062-0.174,0.11-0.333,0.126-0.656V7.544
			c-0.016-0.322-0.064-0.479-0.126-0.65L7.396,6.791l3.034-0.002c1.164,0,2.112,0.948,2.112,2.112c0,1.165-0.947,2.112-2.111,2.112
			l-0.43-0.002c-0.03,0-0.04,0.012-0.045,0.024c-0.016,0.033-0.006,0.097,0.037,0.146L14.2,16.136z M12.865,15.982h1.003
			l-3.991-4.702c-0.078-0.092-0.103-0.217-0.06-0.311c0.033-0.072,0.101-0.113,0.185-0.113l0.43,0.002
			c1.079,0,1.958-0.878,1.958-1.958s-0.879-1.958-1.959-1.958L7.614,6.945c0.048,0.147,0.087,0.315,0.1,0.596l0.001,7.84
			c-0.014,0.284-0.052,0.449-0.101,0.602h0.974c-0.048-0.148-0.087-0.316-0.103-0.597l0.001-3.873c0-0.206,0.079-0.277,0.146-0.3
			c0.095-0.036,0.21,0.018,0.305,0.137L12.865,15.982z M18.288,16.122c-2.568,0-4.659-2.09-4.659-4.659
			c0-1.245,0.485-2.415,1.365-3.294c0.879-0.879,2.049-1.364,3.292-1.364c0.001,0,0.001,0,0.001,0c2.569,0,4.66,2.09,4.66,4.659
			S20.857,16.122,18.288,16.122z M18.286,6.958c-1.203,0-2.333,0.468-3.184,1.319c-0.852,0.851-1.319,1.982-1.319,3.186
			c0,2.484,2.021,4.505,4.505,4.505s4.506-2.021,4.506-4.505C22.794,8.979,20.772,6.958,18.286,6.958L18.286,6.958z M18.288,15.233
			c-2.079,0-3.771-1.691-3.771-3.77c0-1.007,0.393-1.954,1.104-2.666c0.712-0.712,1.658-1.104,2.664-1.104c0.001,0,0.001,0,0.001,0
			c2.08,0,3.771,1.691,3.771,3.771C22.059,13.542,20.367,15.233,18.288,15.233z M18.286,7.847c-0.965,0-1.872,0.376-2.556,1.06
			c-0.683,0.683-1.059,1.591-1.059,2.557c0,1.994,1.622,3.616,3.616,3.616s3.616-1.622,3.616-3.616S20.282,7.847,18.286,7.847
			L18.286,7.847z M10.429,10.076l-1.944-0.004V7.7l1.944,0c0.317,0,0.615,0.124,0.84,0.348c0.224,0.224,0.347,0.522,0.347,0.839
			C11.615,9.543,11.083,10.076,10.429,10.076z M8.638,9.918l1.791,0.004c0.569,0,1.033-0.464,1.033-1.034
			c0-0.276-0.107-0.535-0.302-0.73c-0.195-0.196-0.455-0.303-0.731-0.303L8.638,7.854V9.918z"/>
	</g>
</g>
</svg>
