<?xml version="1.0" encoding="utf-8"?>
<!-- Generator: Adobe Illustrator 16.0.3, SVG Export Plug-In . SVG Version: 6.00 Build 0)  -->
<!DOCTYPE svg PUBLIC "-//W3C//DTD SVG 1.1//EN" "http://www.w3.org/Graphics/SVG/1.1/DTD/svg11.dtd">
<svg version="1.1" id="Layer_1" xmlns="http://www.w3.org/2000/svg" xmlns:xlink="http://www.w3.org/1999/xlink" x="0px" y="0px"
	 width="60px" height="135px" viewBox="0 0 60 135" enable-background="new 0 0 60 135" xml:space="preserve">
<g id="Layer_2">
	<g>
		<g>
			<path fill="#808080" d="M30,92.528c-16.542,0-30-13.372-30-29.809v-32.94C0,13.343,13.458-0.03,30-0.03s30,13.373,30,29.809
				v32.94C60,79.156,46.542,92.528,30,92.528z M30,6.246c-13.061,0-23.685,10.556-23.685,23.534v32.94
				c0,12.977,10.624,23.532,23.685,23.532S53.685,75.696,53.685,62.72v-32.94C53.685,16.802,43.061,6.246,30,6.246z"/>
			<path fill="#808080" d="M33.554,33.447c0,1.658-1.59,3.003-3.554,3.003l0,0c-1.962,0-3.553-1.342-3.553-3.003V21.015
				c0-1.656,1.59-3.002,3.553-3.002l0,0c1.964,0,3.554,1.344,3.554,3.002V33.447z"/>
		</g>
		<g>
			<path fill="#808080" d="M53.829,112.572c1.114-1.104,0.99-3.014-0.256-4.251l0,0c-1.246-1.241-3.166-1.357-4.274-0.25
				L27.49,129.737c-1.112,1.105-1.002,3.016,0.251,4.253l0,0c1.25,1.239,3.169,1.355,4.279,0.252L53.829,112.572z"/>
			<path fill="#808080" d="M32.514,129.737c1.112,1.103,0.989,3.01-0.258,4.25l0,0c-1.245,1.242-3.166,1.358-4.274,0.253
				L6.174,112.569c-1.112-1.104-1.002-3.014,0.251-4.25l0,0c1.25-1.242,3.169-1.355,4.278-0.251L32.514,129.737z"/>
		</g>
	</g>
</g>
</svg>
