<?xml version="1.0" encoding="utf-8"?>
<!-- Generator: Adobe Illustrator 16.0.3, SVG Export Plug-In . SVG Version: 6.00 Build 0)  -->
<!DOCTYPE svg PUBLIC "-//W3C//DTD SVG 1.1//EN" "http://www.w3.org/Graphics/SVG/1.1/DTD/svg11.dtd">
<svg version="1.1" id="Layer_1" xmlns="http://www.w3.org/2000/svg" xmlns:xlink="http://www.w3.org/1999/xlink" x="0px" y="0px"
	 width="200px" height="25px" viewBox="0 0 200 25" enable-background="new 0 0 200 25" xml:space="preserve">
<g>
	<path fill="#000000" d="M188.397,11.071c1.603-2.563,3.185-5.045,4.71-7.563c0.425-0.702,0.901-1.024,1.745-0.992
		c1.615,0.062,3.234,0.018,4.937,0.018c0,6.78,0,13.399,0,20.131c-2.092,0-4.161,0-6.376,0c0-3.627,0-7.229,0-10.83
		c-0.085-0.022-0.17-0.044-0.254-0.066c-0.911,1.474-1.813,2.955-2.735,4.421c-0.719,1.143-3.313,1.138-4.025-0.01
		c-0.957-1.545-1.887-3.104-3-4.939c0,4.004,0,7.664,0,11.521c-1.977,0-3.886,0.03-5.792-0.038c-0.23-0.008-0.634-0.548-0.636-0.844
		c-0.036-6.17-0.038-12.339,0.009-18.508c0.003-0.279,0.519-0.78,0.814-0.795c1.582-0.079,3.171-0.093,4.752,0.003
		c0.396,0.025,0.884,0.462,1.123,0.841C185.252,5.911,186.778,8.438,188.397,11.071z"/>
	<path fill="#000000" d="M141.946,14.736c1.441,2.631,2.834,5.18,4.398,8.038c-1.697,0-3.169-0.103-4.62,0.028
		c-1.478,0.135-2.379-0.344-2.988-1.719c-0.554-1.247-1.339-2.388-2.021-3.575c-1.091-1.899-1.091-1.899-3.49-1.468
		c0,2.171,0,4.374,0,6.724c-2.031,0-3.905,0.03-5.776-0.038c-0.235-0.008-0.646-0.542-0.647-0.832
		c-0.037-6.168-0.038-12.336,0-18.503c0.002-0.299,0.413-0.855,0.635-0.856c3.97-0.008,7.953-0.127,11.905,0.157
		c2.621,0.189,4.764,1.591,5.367,4.408C145.352,10.103,144.93,12.84,141.946,14.736z M133.224,11.771
		c1.265-0.097,2.334-0.099,3.374-0.277c1.376-0.235,1.85-0.975,1.785-2.488c-0.059-1.4-0.594-1.972-2.02-2.144
		c-0.381-0.045-0.766-0.072-1.149-0.092c-1.99-0.101-1.99-0.099-1.991,1.836C133.223,9.582,133.224,10.555,133.224,11.771z"/>
	<path fill="#000000" d="M150.336,22.765c0.814-3.077,1.572-5.958,2.337-8.837c0.91-3.428,1.852-6.849,2.721-10.287
		c0.201-0.798,0.511-1.136,1.371-1.123c2.867,0.046,5.737-0.014,8.604,0.053c0.415,0.009,1.086,0.417,1.186,0.768
		c1.773,6.375,3.478,12.77,5.264,19.407c-2.325,0-4.52,0.009-6.712-0.018c-0.15,0-0.338-0.233-0.435-0.4
		c-0.104-0.178-0.117-0.407-0.181-0.61c-0.347-1.13-0.396-2.912-1.115-3.244c-1.203-0.556-2.835-0.226-4.285-0.184
		c-0.253,0.008-0.62,0.391-0.716,0.675c-0.327,0.969-0.513,1.987-0.848,2.954c-0.113,0.333-0.496,0.802-0.77,0.81
		C154.676,22.797,152.593,22.765,150.336,22.765z M161.062,6.387c-0.595,2.556-1.175,5.049-1.766,7.587c1.249,0,2.305,0,3.517,0
		C162.22,11.408,161.649,8.932,161.062,6.387z"/>
	<path fill="#000000" d="M114.065,12.015c2.008,0,3.841-0.03,5.669,0.038c0.23,0.009,0.626,0.538,0.63,0.831
		c0.047,3.17,0.052,6.341-0.006,9.51c-0.005,0.313-0.485,0.871-0.766,0.885c-3.496,0.173-7.019,0.57-10.487,0.302
		c-4.246-0.328-6.629-2.898-7.025-7.191c-0.227-2.45-0.182-4.983,0.171-7.417c0.544-3.758,2.777-5.832,6.498-6.449
		c3.642-0.604,7.26-0.141,10.854,0.491c0.269,0.047,0.658,0.45,0.674,0.708c0.075,1.143,0.032,2.293,0.032,3.424
		c-1.563,0-3.001,0-4.439,0c-1.201,0-2.4-0.039-3.599,0.007c-2.133,0.083-3.243,0.958-3.438,3.058
		c-0.181,1.951-0.202,3.95-0.005,5.897c0.272,2.679,2.126,3.594,5.237,2.759C114.065,16.672,114.065,14.448,114.065,12.015z"/>
	<path fill="#000000" d="M54.799,16.644c0,2.315,0,4.566,0,6.9c-1.328,0-2.508,0-3.838,0c-0.03-0.398-0.085-0.808-0.086-1.216
		c-0.005-5.874,0.017-11.749-0.023-17.624c-0.006-1.017,0.224-1.44,1.343-1.422c3.729,0.065,7.462-0.028,11.191,0.042
		c4.534,0.084,7.536,3.501,6.723,7.755c-0.235,1.229-1.072,2.342-1.74,3.734c0.967,0.811,1.622,2.158,1.542,3.862
		c-0.074,1.578-0.015,3.165-0.015,4.851c-1.283,0-2.497,0-3.905,0c0-1.612-0.033-3.227,0.011-4.839
		c0.033-1.218-0.602-1.975-1.699-2.009C61.187,16.58,58.065,16.644,54.799,16.644z M54.777,12.764c3.288,0,6.368,0.058,9.445-0.027
		c1.425-0.039,2.175-1.151,2.175-2.818c0-1.621-0.698-2.716-2.067-2.771c-2.951-0.119-5.908-0.092-8.861-0.069
		c-0.233,0.002-0.653,0.434-0.662,0.678C54.748,9.373,54.777,10.993,54.777,12.764z"/>
	<path fill="#000000" d="M43.374,3.126c0,1.475,0,2.577,0,3.827c-0.527,0.029-1.022,0.079-1.516,0.08
		c-3.128,0.008-6.257-0.034-9.384,0.028c-0.963,0.019-1.986,0.157-2.865,0.521c-1.545,0.638-2.056,1.953-1.788,4.076
		c4.294,0,8.606,0,13.031,0c0,1.243,0,2.367,0,3.632c-4.351,0-8.656,0-12.925,0c-0.667,2.683,0.931,4.593,3.844,4.642
		c3.341,0.059,6.684,0.019,10.027,0.022c0.467,0,0.934,0,1.518,0c0,1.199,0,2.329,0,3.506c-0.014,0.012-0.079,0.111-0.145,0.111
		c-4.112,0.011-8.234,0.184-12.334-0.035c-4.188-0.224-7.021-3.519-7.039-7.698c-0.007-1.585-0.008-3.171,0-4.757
		c0.019-3.685,1.988-6.779,5.599-7.273C33.978,3.18,38.664,3.32,43.374,3.126z"/>
	<path fill="#000000" d="M96.921,13.482c0,1.07,0.003,2.143-0.001,3.211c-0.015,3.814-2.491,6.646-6.32,6.898
		c-2.77,0.182-5.571,0.182-8.34-0.012c-3.715-0.26-6.218-3.155-6.233-6.877c-0.008-2.013-0.002-4.028-0.001-6.041
		c0.002-4.091,2.041-6.772,6.109-7.219c3.034-0.333,6.173-0.27,9.208,0.093c3.536,0.423,5.56,3.15,5.577,6.732
		C96.925,11.34,96.921,12.411,96.921,13.482z M93.013,13.523c0-1.243,0.022-2.486-0.005-3.728c-0.036-1.564-0.681-2.551-2.226-2.64
		c-2.851-0.163-5.724-0.161-8.575-0.001c-1.524,0.085-2.243,1.108-2.266,2.631c-0.037,2.441-0.035,4.884-0.002,7.327
		c0.021,1.659,0.905,2.729,2.563,2.802c2.65,0.112,5.313,0.112,7.963,0.002c1.685-0.071,2.51-1.108,2.544-2.794
		C93.034,15.922,93.015,14.723,93.013,13.523z"/>
	<path fill="#000000" d="M18.337,3.422c0.335,1.921,0.099,3.436-1.416,4.902c-3.783,3.662-7.351,7.547-11.22,11.566
		c4.365,0,8.471,0,12.667,0c0,1.301,0,2.431,0,3.651c-6.032,0-12.051,0-18.148,0c-0.198-1.708-0.289-3.191,1.204-4.628
		c3.552-3.41,6.891-7.045,10.313-10.593c0.315-0.327,0.607-0.676,1.146-1.277c-4.423,0-8.542,0-12.715,0c0-1.3,0-2.403,0-3.622
		C6.215,3.422,12.229,3.422,18.337,3.422z"/>
</g>
</svg>
